<mxfile host="app.diagrams.net" agent="Mozilla/5.0 (Windows NT 10.0; Win64; x64) AppleWebKit/537.36 (KHTML, like Gecko) Chrome/131.0.0.0 Safari/537.36 Edg/131.0.0.0" version="24.7.17">
  <diagram name="Page-1" id="FwTIb1xoWIYtIqaa7XCR">
    <mxGraphModel dx="946" dy="651" grid="1" gridSize="10" guides="1" tooltips="1" connect="1" arrows="1" fold="1" page="1" pageScale="1" pageWidth="827" pageHeight="1169" math="0" shadow="0">
      <root>
        <mxCell id="0" />
        <mxCell id="1" parent="0" />
        <mxCell id="HXo9R18dCWuc6Rr9s96H-9" value="File Manager" style="swimlane;fontStyle=0;childLayout=stackLayout;horizontal=1;startSize=26;fillColor=none;horizontalStack=0;resizeParent=1;resizeParentMax=0;resizeLast=0;collapsible=1;marginBottom=0;whiteSpace=wrap;html=1;" vertex="1" parent="1">
          <mxGeometry x="560" y="340" width="140" height="70" as="geometry" />
        </mxCell>
        <mxCell id="HXo9R18dCWuc6Rr9s96H-10" value="Load/Save Image, track current imgae" style="text;strokeColor=none;fillColor=none;align=left;verticalAlign=top;spacingLeft=4;spacingRight=4;overflow=hidden;rotatable=0;points=[[0,0.5],[1,0.5]];portConstraint=eastwest;whiteSpace=wrap;html=1;" vertex="1" parent="HXo9R18dCWuc6Rr9s96H-9">
          <mxGeometry y="26" width="140" height="44" as="geometry" />
        </mxCell>
        <mxCell id="HXo9R18dCWuc6Rr9s96H-13" value="Clipboard" style="swimlane;fontStyle=0;childLayout=stackLayout;horizontal=1;startSize=26;fillColor=none;horizontalStack=0;resizeParent=1;resizeParentMax=0;resizeLast=0;collapsible=1;marginBottom=0;whiteSpace=wrap;html=1;" vertex="1" parent="1">
          <mxGeometry x="110" y="300" width="100" height="52" as="geometry" />
        </mxCell>
        <mxCell id="HXo9R18dCWuc6Rr9s96H-14" value="Cut, Copy" style="text;strokeColor=none;fillColor=none;align=left;verticalAlign=top;spacingLeft=4;spacingRight=4;overflow=hidden;rotatable=0;points=[[0,0.5],[1,0.5]];portConstraint=eastwest;whiteSpace=wrap;html=1;" vertex="1" parent="HXo9R18dCWuc6Rr9s96H-13">
          <mxGeometry y="26" width="100" height="26" as="geometry" />
        </mxCell>
        <mxCell id="HXo9R18dCWuc6Rr9s96H-15" value="Filters" style="swimlane;fontStyle=0;childLayout=stackLayout;horizontal=1;startSize=26;fillColor=none;horizontalStack=0;resizeParent=1;resizeParentMax=0;resizeLast=0;collapsible=1;marginBottom=0;whiteSpace=wrap;html=1;" vertex="1" parent="1">
          <mxGeometry x="520" y="170" width="120" height="70" as="geometry" />
        </mxCell>
        <mxCell id="HXo9R18dCWuc6Rr9s96H-16" value="Gaussian Blur, Sobel Edge, Binary" style="text;strokeColor=none;fillColor=none;align=left;verticalAlign=top;spacingLeft=4;spacingRight=4;overflow=hidden;rotatable=0;points=[[0,0.5],[1,0.5]];portConstraint=eastwest;whiteSpace=wrap;html=1;" vertex="1" parent="HXo9R18dCWuc6Rr9s96H-15">
          <mxGeometry y="26" width="120" height="44" as="geometry" />
        </mxCell>
        <mxCell id="HXo9R18dCWuc6Rr9s96H-17" value="CustomCanvas" style="swimlane;fontStyle=0;childLayout=stackLayout;horizontal=1;startSize=26;fillColor=none;horizontalStack=0;resizeParent=1;resizeParentMax=0;resizeLast=0;collapsible=1;marginBottom=0;whiteSpace=wrap;html=1;" vertex="1" parent="1">
          <mxGeometry x="280" y="260" width="140" height="80" as="geometry" />
        </mxCell>
        <mxCell id="HXo9R18dCWuc6Rr9s96H-18" value="Drawing, Zoom, Image Display, Clipboard Integration" style="text;strokeColor=none;fillColor=none;align=left;verticalAlign=top;spacingLeft=4;spacingRight=4;overflow=hidden;rotatable=0;points=[[0,0.5],[1,0.5]];portConstraint=eastwest;whiteSpace=wrap;html=1;" vertex="1" parent="HXo9R18dCWuc6Rr9s96H-17">
          <mxGeometry y="26" width="140" height="54" as="geometry" />
        </mxCell>
        <mxCell id="HXo9R18dCWuc6Rr9s96H-19" value="ShapeTool" style="swimlane;fontStyle=0;childLayout=stackLayout;horizontal=1;startSize=26;fillColor=none;horizontalStack=0;resizeParent=1;resizeParentMax=0;resizeLast=0;collapsible=1;marginBottom=0;whiteSpace=wrap;html=1;" vertex="1" parent="1">
          <mxGeometry x="510" y="450" width="110" height="70" as="geometry" />
        </mxCell>
        <mxCell id="HXo9R18dCWuc6Rr9s96H-20" value="Rectangle, Circle, Triangle, Line" style="text;strokeColor=none;fillColor=none;align=left;verticalAlign=top;spacingLeft=4;spacingRight=4;overflow=hidden;rotatable=0;points=[[0,0.5],[1,0.5]];portConstraint=eastwest;whiteSpace=wrap;html=1;" vertex="1" parent="HXo9R18dCWuc6Rr9s96H-19">
          <mxGeometry y="26" width="110" height="44" as="geometry" />
        </mxCell>
        <mxCell id="HXo9R18dCWuc6Rr9s96H-21" value="SelectionTools" style="swimlane;fontStyle=0;childLayout=stackLayout;horizontal=1;startSize=26;fillColor=none;horizontalStack=0;resizeParent=1;resizeParentMax=0;resizeLast=0;collapsible=1;marginBottom=0;whiteSpace=wrap;html=1;" vertex="1" parent="1">
          <mxGeometry x="360" y="520" width="120" height="70" as="geometry" />
        </mxCell>
        <mxCell id="HXo9R18dCWuc6Rr9s96H-22" value="Rectangle, Polygon, Lasso" style="text;strokeColor=none;fillColor=none;align=left;verticalAlign=top;spacingLeft=4;spacingRight=4;overflow=hidden;rotatable=0;points=[[0,0.5],[1,0.5]];portConstraint=eastwest;whiteSpace=wrap;html=1;" vertex="1" parent="HXo9R18dCWuc6Rr9s96H-21">
          <mxGeometry y="26" width="120" height="44" as="geometry" />
        </mxCell>
        <mxCell id="HXo9R18dCWuc6Rr9s96H-23" value="Tools" style="swimlane;fontStyle=0;childLayout=stackLayout;horizontal=1;startSize=26;fillColor=none;horizontalStack=0;resizeParent=1;resizeParentMax=0;resizeLast=0;collapsible=1;marginBottom=0;whiteSpace=wrap;html=1;" vertex="1" parent="1">
          <mxGeometry x="280" y="400" width="140" height="70" as="geometry" />
        </mxCell>
        <mxCell id="HXo9R18dCWuc6Rr9s96H-24" value="Selection, Colored, Paste, Shape" style="text;strokeColor=none;fillColor=none;align=left;verticalAlign=top;spacingLeft=4;spacingRight=4;overflow=hidden;rotatable=0;points=[[0,0.5],[1,0.5]];portConstraint=eastwest;whiteSpace=wrap;html=1;" vertex="1" parent="HXo9R18dCWuc6Rr9s96H-23">
          <mxGeometry y="26" width="140" height="44" as="geometry" />
        </mxCell>
        <mxCell id="HXo9R18dCWuc6Rr9s96H-25" value="PastingTool" style="swimlane;fontStyle=0;childLayout=stackLayout;horizontal=1;startSize=26;fillColor=none;horizontalStack=0;resizeParent=1;resizeParentMax=0;resizeLast=0;collapsible=1;marginBottom=0;whiteSpace=wrap;html=1;" vertex="1" parent="1">
          <mxGeometry x="110" y="459" width="90" height="52" as="geometry" />
        </mxCell>
        <mxCell id="HXo9R18dCWuc6Rr9s96H-26" value="+ field: type" style="text;strokeColor=none;fillColor=none;align=left;verticalAlign=top;spacingLeft=4;spacingRight=4;overflow=hidden;rotatable=0;points=[[0,0.5],[1,0.5]];portConstraint=eastwest;whiteSpace=wrap;html=1;" vertex="1" parent="HXo9R18dCWuc6Rr9s96H-25">
          <mxGeometry y="26" width="90" height="26" as="geometry" />
        </mxCell>
        <mxCell id="HXo9R18dCWuc6Rr9s96H-27" value="MainWindow" style="swimlane;fontStyle=0;childLayout=stackLayout;horizontal=1;startSize=26;fillColor=none;horizontalStack=0;resizeParent=1;resizeParentMax=0;resizeLast=0;collapsible=1;marginBottom=0;whiteSpace=wrap;html=1;" vertex="1" parent="1">
          <mxGeometry x="300" y="130" width="100" height="70" as="geometry">
            <mxRectangle x="280" y="160" width="110" height="30" as="alternateBounds" />
          </mxGeometry>
        </mxCell>
        <mxCell id="HXo9R18dCWuc6Rr9s96H-28" value="Menus, Frames, Canvas Setup" style="text;strokeColor=none;fillColor=none;align=left;verticalAlign=top;spacingLeft=4;spacingRight=4;overflow=hidden;rotatable=0;points=[[0,0.5],[1,0.5]];portConstraint=eastwest;whiteSpace=wrap;html=1;" vertex="1" parent="HXo9R18dCWuc6Rr9s96H-27">
          <mxGeometry y="26" width="100" height="44" as="geometry" />
        </mxCell>
        <mxCell id="HXo9R18dCWuc6Rr9s96H-29" value="ColoredTools" style="swimlane;fontStyle=0;childLayout=stackLayout;horizontal=1;startSize=26;fillColor=none;horizontalStack=0;resizeParent=1;resizeParentMax=0;resizeLast=0;collapsible=1;marginBottom=0;whiteSpace=wrap;html=1;" vertex="1" parent="1">
          <mxGeometry x="240" y="520" width="100" height="70" as="geometry" />
        </mxCell>
        <mxCell id="HXo9R18dCWuc6Rr9s96H-30" value="Drawing , Paint Bucket, Erasing" style="text;strokeColor=none;fillColor=none;align=left;verticalAlign=top;spacingLeft=4;spacingRight=4;overflow=hidden;rotatable=0;points=[[0,0.5],[1,0.5]];portConstraint=eastwest;whiteSpace=wrap;html=1;" vertex="1" parent="HXo9R18dCWuc6Rr9s96H-29">
          <mxGeometry y="26" width="100" height="44" as="geometry" />
        </mxCell>
        <mxCell id="HXo9R18dCWuc6Rr9s96H-32" value="Extends" style="endArrow=block;endSize=16;endFill=0;html=1;rounded=0;fontSize=12;curved=1;exitX=0.5;exitY=0;exitDx=0;exitDy=0;" edge="1" parent="1" source="HXo9R18dCWuc6Rr9s96H-29" target="HXo9R18dCWuc6Rr9s96H-23">
          <mxGeometry width="160" relative="1" as="geometry">
            <mxPoint x="320" y="470" as="sourcePoint" />
            <mxPoint x="480" y="470" as="targetPoint" />
          </mxGeometry>
        </mxCell>
        <mxCell id="HXo9R18dCWuc6Rr9s96H-33" value="Extends" style="endArrow=block;endSize=16;endFill=0;html=1;rounded=0;fontSize=12;curved=1;exitX=0.5;exitY=0;exitDx=0;exitDy=0;entryX=0.75;entryY=1;entryDx=0;entryDy=0;" edge="1" parent="1" source="HXo9R18dCWuc6Rr9s96H-21" target="HXo9R18dCWuc6Rr9s96H-23">
          <mxGeometry width="160" relative="1" as="geometry">
            <mxPoint x="370" y="470" as="sourcePoint" />
            <mxPoint x="380" y="470" as="targetPoint" />
          </mxGeometry>
        </mxCell>
        <mxCell id="HXo9R18dCWuc6Rr9s96H-34" value="Extends" style="endArrow=block;endSize=16;endFill=0;html=1;rounded=0;fontSize=12;curved=1;exitX=1;exitY=0.25;exitDx=0;exitDy=0;entryX=0;entryY=1;entryDx=0;entryDy=0;" edge="1" parent="1" source="HXo9R18dCWuc6Rr9s96H-25" target="HXo9R18dCWuc6Rr9s96H-23">
          <mxGeometry x="-0.243" y="11" width="160" relative="1" as="geometry">
            <mxPoint x="610" y="480" as="sourcePoint" />
            <mxPoint x="770" y="480" as="targetPoint" />
            <mxPoint as="offset" />
          </mxGeometry>
        </mxCell>
        <mxCell id="HXo9R18dCWuc6Rr9s96H-35" value="Extends" style="endArrow=block;endSize=16;endFill=0;html=1;rounded=0;fontSize=12;curved=1;exitX=0;exitY=0.25;exitDx=0;exitDy=0;entryX=1;entryY=1;entryDx=0;entryDy=0;" edge="1" parent="1" source="HXo9R18dCWuc6Rr9s96H-19" target="HXo9R18dCWuc6Rr9s96H-23">
          <mxGeometry x="-0.1118" y="-1" width="160" relative="1" as="geometry">
            <mxPoint x="580" y="520" as="sourcePoint" />
            <mxPoint x="770" y="480" as="targetPoint" />
            <mxPoint as="offset" />
          </mxGeometry>
        </mxCell>
        <mxCell id="HXo9R18dCWuc6Rr9s96H-37" value="Interacts via Menus" style="html=1;verticalAlign=bottom;endArrow=block;curved=0;rounded=0;fontSize=12;startSize=8;endSize=8;exitX=0;exitY=0.5;exitDx=0;exitDy=0;entryX=0.5;entryY=0;entryDx=0;entryDy=0;" edge="1" parent="1" source="HXo9R18dCWuc6Rr9s96H-28" target="HXo9R18dCWuc6Rr9s96H-13">
          <mxGeometry width="80" relative="1" as="geometry">
            <mxPoint x="240" y="450" as="sourcePoint" />
            <mxPoint x="320" y="450" as="targetPoint" />
            <Array as="points">
              <mxPoint x="160" y="220" />
            </Array>
            <mxPoint as="offset" />
          </mxGeometry>
        </mxCell>
        <mxCell id="HXo9R18dCWuc6Rr9s96H-38" value="Stores content to&lt;br&gt;local variable" style="html=1;verticalAlign=bottom;endArrow=block;curved=0;rounded=0;fontSize=12;startSize=8;endSize=8;exitX=1;exitY=0;exitDx=0;exitDy=0;entryX=0;entryY=0.5;entryDx=0;entryDy=0;" edge="1" parent="1" source="HXo9R18dCWuc6Rr9s96H-13" target="HXo9R18dCWuc6Rr9s96H-17">
          <mxGeometry x="-0.5" y="10" width="80" relative="1" as="geometry">
            <mxPoint x="240" y="450" as="sourcePoint" />
            <mxPoint x="280" y="326" as="targetPoint" />
            <mxPoint as="offset" />
          </mxGeometry>
        </mxCell>
        <mxCell id="HXo9R18dCWuc6Rr9s96H-39" value="Select and delegates&lt;br&gt;for editing" style="html=1;verticalAlign=bottom;endArrow=block;curved=0;rounded=0;fontSize=12;startSize=8;endSize=8;entryX=0.25;entryY=0;entryDx=0;entryDy=0;exitX=0.25;exitY=1;exitDx=0;exitDy=0;" edge="1" parent="1" source="HXo9R18dCWuc6Rr9s96H-17" target="HXo9R18dCWuc6Rr9s96H-23">
          <mxGeometry x="0.5" y="-15" width="80" relative="1" as="geometry">
            <mxPoint x="230" y="340" as="sourcePoint" />
            <mxPoint x="310" y="430" as="targetPoint" />
            <mxPoint as="offset" />
          </mxGeometry>
        </mxCell>
        <mxCell id="HXo9R18dCWuc6Rr9s96H-40" value="Returns&lt;br&gt;Updates" style="html=1;verticalAlign=bottom;endArrow=block;curved=0;rounded=0;fontSize=12;startSize=8;endSize=8;exitX=0.75;exitY=0;exitDx=0;exitDy=0;entryX=0.75;entryY=1;entryDx=0;entryDy=0;" edge="1" parent="1" source="HXo9R18dCWuc6Rr9s96H-23" target="HXo9R18dCWuc6Rr9s96H-17">
          <mxGeometry x="-0.5" width="80" relative="1" as="geometry">
            <mxPoint x="310" y="450" as="sourcePoint" />
            <mxPoint x="390" y="450" as="targetPoint" />
            <mxPoint as="offset" />
          </mxGeometry>
        </mxCell>
        <mxCell id="HXo9R18dCWuc6Rr9s96H-41" style="edgeStyle=none;curved=1;rounded=0;orthogonalLoop=1;jettySize=auto;html=1;exitX=0.75;exitY=0;exitDx=0;exitDy=0;fontSize=12;startSize=8;endSize=8;" edge="1" parent="1" source="HXo9R18dCWuc6Rr9s96H-9" target="HXo9R18dCWuc6Rr9s96H-9">
          <mxGeometry relative="1" as="geometry" />
        </mxCell>
        <mxCell id="HXo9R18dCWuc6Rr9s96H-42" value="Applies filters&lt;br&gt;via Menus" style="html=1;verticalAlign=bottom;endArrow=block;curved=0;rounded=0;fontSize=12;startSize=8;endSize=8;exitX=1;exitY=0.295;exitDx=0;exitDy=0;entryX=0;entryY=0;entryDx=0;entryDy=0;exitPerimeter=0;" edge="1" parent="1" source="HXo9R18dCWuc6Rr9s96H-28" target="HXo9R18dCWuc6Rr9s96H-15">
          <mxGeometry x="0.1957" y="1" width="80" relative="1" as="geometry">
            <mxPoint x="430" y="450" as="sourcePoint" />
            <mxPoint x="510" y="450" as="targetPoint" />
            <Array as="points" />
            <mxPoint as="offset" />
          </mxGeometry>
        </mxCell>
        <mxCell id="HXo9R18dCWuc6Rr9s96H-45" value="Transforms image" style="html=1;verticalAlign=bottom;endArrow=block;curved=0;rounded=0;fontSize=12;startSize=8;endSize=8;exitX=0;exitY=0.75;exitDx=0;exitDy=0;entryX=1;entryY=0.25;entryDx=0;entryDy=0;" edge="1" parent="1" source="HXo9R18dCWuc6Rr9s96H-15" target="HXo9R18dCWuc6Rr9s96H-17">
          <mxGeometry width="80" relative="1" as="geometry">
            <mxPoint x="480" y="330" as="sourcePoint" />
            <mxPoint x="440" y="310" as="targetPoint" />
          </mxGeometry>
        </mxCell>
        <mxCell id="HXo9R18dCWuc6Rr9s96H-46" value="Initializes" style="html=1;verticalAlign=bottom;endArrow=block;curved=0;rounded=0;fontSize=12;startSize=8;endSize=8;entryX=0.25;entryY=0;entryDx=0;entryDy=0;exitX=1;exitY=1;exitDx=0;exitDy=0;" edge="1" parent="1" source="HXo9R18dCWuc6Rr9s96H-49" target="HXo9R18dCWuc6Rr9s96H-17">
          <mxGeometry x="-0.0303" width="80" relative="1" as="geometry">
            <mxPoint x="300" y="120" as="sourcePoint" />
            <mxPoint x="450" y="460" as="targetPoint" />
            <Array as="points">
              <mxPoint x="270" y="160" />
              <mxPoint x="270" y="230" />
              <mxPoint x="315" y="230" />
            </Array>
            <mxPoint as="offset" />
          </mxGeometry>
        </mxCell>
        <mxCell id="HXo9R18dCWuc6Rr9s96H-47" value="Loads&amp;amp;Saves Images" style="html=1;verticalAlign=bottom;endArrow=block;curved=0;rounded=0;fontSize=12;startSize=8;endSize=8;exitX=0;exitY=0;exitDx=0;exitDy=0;entryX=1;entryY=0.5;entryDx=0;entryDy=0;" edge="1" parent="1" source="HXo9R18dCWuc6Rr9s96H-9" target="HXo9R18dCWuc6Rr9s96H-17">
          <mxGeometry x="-0.0377" y="10" width="80" relative="1" as="geometry">
            <mxPoint x="420" y="410" as="sourcePoint" />
            <mxPoint x="450" y="310" as="targetPoint" />
            <mxPoint as="offset" />
          </mxGeometry>
        </mxCell>
        <mxCell id="HXo9R18dCWuc6Rr9s96H-48" value="Call image state&lt;br&gt;management" style="html=1;verticalAlign=bottom;endArrow=block;curved=0;rounded=0;fontSize=12;startSize=8;endSize=8;exitX=1;exitY=1;exitDx=0;exitDy=0;entryX=0;entryY=0.75;entryDx=0;entryDy=0;" edge="1" parent="1" source="HXo9R18dCWuc6Rr9s96H-17" target="HXo9R18dCWuc6Rr9s96H-9">
          <mxGeometry x="0.0646" y="-13" width="80" relative="1" as="geometry">
            <mxPoint x="420" y="410" as="sourcePoint" />
            <mxPoint x="500" y="410" as="targetPoint" />
            <mxPoint as="offset" />
          </mxGeometry>
        </mxCell>
        <mxCell id="HXo9R18dCWuc6Rr9s96H-49" value="Pigment" style="swimlane;fontStyle=0;childLayout=stackLayout;horizontal=1;startSize=26;fillColor=none;horizontalStack=0;resizeParent=1;resizeParentMax=0;resizeLast=0;collapsible=1;marginBottom=0;whiteSpace=wrap;html=1;" vertex="1" parent="1">
          <mxGeometry x="160" y="80" width="90" height="70" as="geometry" />
        </mxCell>
        <mxCell id="HXo9R18dCWuc6Rr9s96H-50" value="Ordered initialization" style="text;strokeColor=none;fillColor=none;align=left;verticalAlign=top;spacingLeft=4;spacingRight=4;overflow=hidden;rotatable=0;points=[[0,0.5],[1,0.5]];portConstraint=eastwest;whiteSpace=wrap;html=1;" vertex="1" parent="HXo9R18dCWuc6Rr9s96H-49">
          <mxGeometry y="26" width="90" height="44" as="geometry" />
        </mxCell>
        <mxCell id="HXo9R18dCWuc6Rr9s96H-51" value="Initializes" style="html=1;verticalAlign=bottom;endArrow=block;curved=0;rounded=0;fontSize=12;startSize=8;endSize=8;exitX=1;exitY=0.5;exitDx=0;exitDy=0;entryX=0.5;entryY=0;entryDx=0;entryDy=0;" edge="1" parent="1" source="HXo9R18dCWuc6Rr9s96H-49" target="HXo9R18dCWuc6Rr9s96H-27">
          <mxGeometry width="80" relative="1" as="geometry">
            <mxPoint x="350" y="360" as="sourcePoint" />
            <mxPoint x="430" y="360" as="targetPoint" />
            <Array as="points">
              <mxPoint x="350" y="115" />
            </Array>
          </mxGeometry>
        </mxCell>
        <mxCell id="HXo9R18dCWuc6Rr9s96H-52" value="Provides&lt;br&gt;Img data" style="html=1;verticalAlign=bottom;endArrow=block;curved=0;rounded=0;fontSize=12;startSize=8;endSize=8;exitX=0.5;exitY=0;exitDx=0;exitDy=0;entryX=0.495;entryY=0.955;entryDx=0;entryDy=0;entryPerimeter=0;" edge="1" parent="1" source="HXo9R18dCWuc6Rr9s96H-17" target="HXo9R18dCWuc6Rr9s96H-28">
          <mxGeometry x="-0.619" y="-10" width="80" relative="1" as="geometry">
            <mxPoint x="350" y="370" as="sourcePoint" />
            <mxPoint x="430" y="370" as="targetPoint" />
            <mxPoint as="offset" />
          </mxGeometry>
        </mxCell>
      </root>
    </mxGraphModel>
  </diagram>
</mxfile>
